<svg xmlns="http://www.w3.org/2000/svg" viewBox="0 0 500 500" xmlns:bx="https://boxy-svg.com">
  <defs>
    <bx:export>
      <bx:file format="svg"></bx:file>
    </bx:export>
  </defs>
  <path style="fill: rgb(45, 72, 142); paint-order: stroke markers; fill-rule: nonzero; stroke-opacity: 0.7; stroke: rgba(0, 0, 0, 0);" d="M 441.394 227.823 L 434.174 230.716 L 434.011 227.051 C 435.039 225.681 431.564 214.911 428.794 218.604 C 428.08 217.771 425.067 225.228 426.061 226.678 C 426.458 227.257 426.696 229.312 426.839 231.573 L 423.556 231.956 L 423.442 227.093 C 424.019 224.879 421.146 214.394 417.459 216.238 C 415.023 214.776 412.124 223.638 413.737 228.332 L 414.605 235.469 L 414.527 235.5 L 408.571 236.575 L 407.175 237.005 L 406.357 223.712 C 408.386 225.244 402.648 211.191 400.495 213.013 C 399.155 210.577 390.548 221.478 392.801 225.575 L 394.998 240.756 L 392.892 241.405 L 386.663 241.436 L 386.376 241.475 L 385.66 225.573 C 385.655 220.959 379.427 205.129 374.496 208.827 C 371.304 206.011 361.73 219.939 362.816 225.108 L 364.501 244.486 L 352.435 245.343 L 351.815 226.642 C 348.86 212.266 332.735 194.087 324.835 201.987 C 321.086 196.646 301.93 221.135 305.135 225.573 L 305.525 251.718 L 304.424 251.868 L 288.358 251.769 L 286.992 226.503 C 291.22 223.684 251.411 180.603 234.893 189.754 C 213.585 182.956 167.511 215.476 173.49 227.434 L 175.234 264.066 L 160.818 268.741 L 124.402 266.892 L 123.457 267.088 L 124.647 226.039 C 136.47 210.89 39.221 157.983 36.991 165.537 L 35.386 165.188 L 39.033 84.036 L 441.431 210.688 L 441.394 227.823 Z"></path>
</svg>